<?xml version="1.0" encoding="UTF-8"?>
<svg version="1.1" viewBox="0 0 4000 4000" width="4000" height="4000" xmlns="http://www.w3.org/2000/svg">
<path transform="translate(716,1561)" d="m0 0h13l39 838v8l-66 4-117 7h-13l-8-16-17-35-13-28-18-37-13-28-22-45-11-23-16-33-14-29-16-33-19-39-9-19v10l29 359v6l-20 2-136 10-43 3-2-16-68-827 4-2 160-12 28-2h12l38 82 16 35 18 39 15 33 17 37 16 36 13 28 16 36 17 37 16 36 3 7v-14l-23-391v-12l23-2 153-9zm-170 432m-152 56 1 2z" fill="#fff"/>
<path transform="translate(2663,1536)" d="m0 0h22l154 5 27 1 14 41 22 65 72 216 14 43 19 58h1l20-415 1-1 32 1 145 7 20 1 9 1v13l-49 813-1 17-1 2h-16l-144-7-36-2-17-49-17-48-20-57-19-53-22-62-18-50-22-61-1-3-1 21-9 344-1 12h-13l-183-6-3-1v-32l20-810z" fill="#fff"/>
<path transform="translate(1780,1527)" d="m0 0h11l12 11 8 7 12 11 20 18 12 11 8 7 13 12 10 9 12 11 10 9 13 12 12 11 7 6-1 41-7 207-4 7-11 13-36 44-13 16-9 11-26 32-7 9 3 12 20 63 22 71 20 64 24 78 15 49v3l-2 1-153 1h-64l-18-60-25-84-28-93-18-60v-2l-10 1h-51l3 254v37l-1 1-173 4h-22l-1-13-20-828v-5l1-1 165-4 109-2zm-93 193-126 2-5 1v26l1 84 1 52h54l125-2-2-163z" fill="#fff"/>
<path transform="translate(2133,1527)" d="m0 0h86l157 2 57 1 28 1 37 37 8 7 99 99v35l-9 448-1 40-14 19-14 18-14 19-16 21-14 19-16 21-14 19-16 21-14 19-4 5h-25l-291-4-40-40-8-7-62-62-8-7-25-25-1-88-2-341v-94l10-14 42-57 12-16 14-19 12-16 14-19 16-21 14-19zm60 213v28l7 374 1 19 11 1 157 2h34v-50l-3-305-1-66-12-1-148-2z" fill="#fff"/>
<path transform="translate(1105,1543)" d="m0 0h12l25 88 23 82 24 86 26 94 25 91 27 99 26 96 22 82 24 90 10 37v4l-177 6h-23l-12-48-9-37v-5l-9 1-121 5h-23v10l-8 81-1 1-33 2-158 8h-5l2-28 24-264 23-244 24-247 8-78 1-1 129-6zm-87 353-4 35-20 188-2 21 32-1 48-2 10-1-4-17-24-92-21-79-14-52z" fill="#fff"/>
<path transform="translate(3295,1562)" d="m0 0 58 3 148 9 163 11 122 9 8 1-1 24-11 169-1 8-241-17-46-3-6-1v10l-10 106 22 2 133 9 70 5 5 1-8 67-16 130-1 3-220-15-4-1-1 18-8 89-1 8h15l149 10 122 9 4 1v28l-6 162-1 22-3 1-150-11-150-10-184-11v-12l49-833z" fill="#fff"/>
</svg>
